<?xml version="1.0" encoding="UTF-8" standalone="no"?>
<!-- Created with Inkscape (http://www.inkscape.org/) -->

<svg
   width="210mm"
   height="210mm"
   viewBox="0 0 210 210"
   version="1.1"
   id="svg1"
   xml:space="preserve"
   sodipodi:docname="aserfly-logo-svg-v3.svg"
   inkscape:export-filename="/home/jose/Escritorio/aserfly-nombre-logo.svg"
   inkscape:export-xdpi="96"
   inkscape:export-ydpi="96"
   inkscape:version="1.4.2 (1:1.4.2+202505120737+ebf0e940d0)"
   xmlns:inkscape="http://www.inkscape.org/namespaces/inkscape"
   xmlns:sodipodi="http://sodipodi.sourceforge.net/DTD/sodipodi-0.dtd"
   xmlns="http://www.w3.org/2000/svg"
   xmlns:svg="http://www.w3.org/2000/svg"><sodipodi:namedview
     id="namedview1"
     pagecolor="#ffffff"
     bordercolor="#000000"
     borderopacity="0.25"
     inkscape:showpageshadow="2"
     inkscape:pageopacity="0.0"
     inkscape:pagecheckerboard="0"
     inkscape:deskcolor="#d1d1d1"
     inkscape:document-units="mm"
     inkscape:zoom="1.0117163"
     inkscape:cx="398.82723"
     inkscape:cy="396.85039"
     inkscape:window-width="1920"
     inkscape:window-height="1011"
     inkscape:window-x="0"
     inkscape:window-y="0"
     inkscape:window-maximized="1"
     inkscape:current-layer="layer1" /><defs
     id="defs1"><linearGradient
       id="swatch82"><stop
         style="stop-color:#a7f3d0;stop-opacity:1;"
         offset="0"
         id="stop83" /></linearGradient><linearGradient
       id="swatch74"><stop
         style="stop-color:#000000;stop-opacity:0;"
         offset="0"
         id="stop74" /></linearGradient><linearGradient
       id="swatch25"><stop
         style="stop-color:#000000;stop-opacity:1;"
         offset="0"
         id="stop25" /></linearGradient><linearGradient
       id="swatch7"><stop
         style="stop-color:#00d37d;stop-opacity:0.99762249;"
         offset="0"
         id="stop7" /></linearGradient><linearGradient
       id="swatch6"><stop
         style="stop-color:#34d399;stop-opacity:1;"
         offset="0"
         id="stop6" /></linearGradient></defs><g
     id="layer1"
     transform="rotate(-1.2612777,176.99563,105.36755)"><path
       d="M 27.849938,101.70811 H 37.857206 L 32.868969,87.882674 Z M 39.951035,84.895894 q 0,0 9.822519,27.219776 0.800581,2.21699 -0.58504,4.12606 -1.385623,1.93988 -3.694993,1.93988 h -0.677414 q -1.477997,0 -2.740453,-0.92375 -1.262454,-0.89295 -1.508788,-2.24778 l -1.601162,-7.63632 H 27.295689 l -1.477995,7.54393 q -0.277126,1.47801 -1.570373,2.37096 -1.324038,0.89296 -3.079159,0.89296 h -0.677414 q -2.309371,0 -3.664201,-1.93988 -1.35483,-1.90907 -0.615831,-4.12606 l 9.329852,-27.096601 q 0.800582,-2.340164 2.771245,-3.725782 1.970661,-1.385634 4.002907,-1.385634 h 0.862163 q 2.001455,0 3.972116,1.385634 2.001455,1.385618 2.802036,3.602607 z m 15.149464,28.790146 q 0.277126,-1.17009 1.508789,-1.90908 1.108497,-0.67742 2.986785,-0.0616 1.878287,0.61585 3.818157,0.55425 3.694992,-0.0616 3.694992,-2.30936 0,-1.01612 -0.800582,-1.66276 -0.800581,-0.64661 -3.233118,-1.50877 -8.005814,-2.77125 -7.944231,-8.375323 0.06158,-4.033695 3.140743,-6.558613 3.048368,-2.524902 8.159773,-2.524902 2.401745,-0.03072 4.957446,0.677406 1.139289,0.307929 1.816705,1.354844 0.646623,1.046899 0.307915,2.247779 v 0.03072 q -0.215541,1.17009 -1.35483,1.878286 -1.139289,0.677422 -2.586495,0.277124 -1.477995,-0.400283 -2.863618,-0.461862 -3.2947,-0.06161 -3.2947,2.186199 0,0.92374 0.95454,1.662742 0.954539,0.708212 3.541034,1.60117 7.420774,2.61728 7.451565,8.49847 0.06158,4.0337 -2.986785,6.55862 -3.048368,2.49411 -8.960354,2.49411 -3.10995,0 -6.189111,-0.83137 -1.077705,-0.27712 -1.785912,-1.47799 -0.677415,-1.10851 -0.338708,-2.24779 z M 92.389121,95.395834 q -2.186202,0 -4.310824,1.878285 -1.35483,1.200864 -1.878285,3.910541 H 99.686725 Q 98.6706,97.612822 96.669155,96.504328 94.667699,95.395834 92.389121,95.395834 Z m 13.640669,8.683236 v 0.0307 q 0,2.58648 -2.46332,2.58648 H 86.415553 q 0.892955,2.80205 1.816703,3.695 3.417867,3.14074 9.114305,0.58505 l 3.171539,-1.41643 q 2.06304,-0.92374 3.17153,0.64664 1.10851,1.57037 0.739,3.23311 l -0.0616,0.0307 q -0.30791,1.38561 -2.83283,2.77123 -3.664204,2.03225 -10.099641,1.97067 -4.618738,0 -8.929562,-4.12608 -4.280031,-4.12606 -4.280031,-10.00725 0,-5.912 4.126073,-10.09966 4.156865,-4.156854 9.791727,-4.064485 5.634861,0.09234 9.760944,4.033695 4.12606,3.941326 4.12606,10.13045 z M 119.5473,91.146594 q 1.78592,-1.262459 6.49702,-1.262459 0.86218,0 1.32404,0.615827 0.46188,0.615843 0.30793,1.354828 l -0.61584,2.863621 q -0.43108,2.740463 -2.12462,2.494129 -2.83282,-0.461878 -5.04982,1.108494 -2.21699,1.570373 -2.24778,3.602606 v 0.0616 h -0.0616 v 11.91635 q 0,1.72432 -1.26246,3.01757 -1.26246,1.29325 -3.07917,1.29325 h -0.0923 q -1.78592,0 -3.04838,-1.23167 -1.23165,-1.26246 -1.23165,-3.07915 V 94.348935 q 0,-1.785917 1.29324,-3.079166 1.29324,-1.262459 3.04836,-1.262459 h 0.15395 q 2.24778,0 4.34161,3.202325 0.95455,-1.447198 1.8475,-2.063024 z m 31.74614,-8.621654 q 0,0 0,0.09234 -0.58504,2.494112 -2.5865,2.586482 -5.26536,0.246333 -5.29615,5.04982 V 92.7785 h 2.43253 q 1.26246,0 2.18622,0.95453 0.92374,0.923756 0.95453,2.217005 v 0.06161 q 0,1.354828 -0.89295,2.247795 -0.89295,0.92374 -2.2478,0.89295 h -2.43253 v 15.21104 q 0,1.66276 -1.17008,2.86362 -1.20088,1.20088 -2.86362,1.17009 h -0.12322 q -1.69355,0 -2.86362,-1.1393 -1.17009,-1.13928 -1.17009,-2.89441 V 99.152389 H 134.358 q -1.32404,0 -2.21699,-0.954546 -0.92376,-0.89295 -0.92376,-2.186199 v -0.06161 q 0,-1.231669 0.95455,-2.217005 0.95453,-0.92374 2.1862,-0.95453 h 0.86216 v -4.09529 q 0,-3.263904 2.80204,-6.497018 3.44866,-3.941326 9.76094,-4.064485 1.50877,-0.03072 2.70965,1.293232 1.20087,1.354845 0.80059,3.109956 z m 12.43981,31.1611 q 0,1.93987 -1.32404,3.2639 -1.32404,1.32404 -3.2947,1.32404 h -0.0923 q -1.8475,0 -3.20233,-1.32404 -1.35483,-1.35482 -1.35483,-3.2639 V 84.249278 q 0,-1.909092 1.32404,-3.233131 1.29325,-1.324038 3.23312,-1.324038 h 0.0923 q 1.93987,0 3.2947,1.324038 1.35482,1.324039 1.32404,3.233131 z M 189.9061,89.483836 q 0,0 0.0616,0 1.97065,0 3.2639,1.631969 1.26246,1.662741 0.55425,3.633396 -0.33871,0.923756 -8.77561,26.234439 -1.57037,4.71112 -5.38852,7.3284 -3.81817,2.64808 -8.86799,1.60117 -0.58503,-0.15395 -1.47798,-0.49267 -2.03225,-0.76979 -2.03225,-3.04836 v -0.0616 q 0,-0.61583 1.01612,-2.30936 0.67742,-1.01613 2.06304,-1.01613 1.41641,0 2.55569,-0.55424 2.64808,-1.29325 2.64808,-6.06595 v -0.0923 q -1.7859,-8.74481 -7.32839,-21.215419 -0.89297,-1.970655 0.27712,-3.787362 1.17008,-1.785916 3.32549,-1.785916 h 0.739 q 0.61583,0 2.30937,0.739001 1.07771,0.554248 1.4472,1.970672 l 5.01903,17.766744 q 2.64808,-5.4809 4.71112,-17.674375 0.18475,-1.046915 1.29325,-1.939866 1.10849,-0.862176 2.5865,-0.862176 z"
       id="text2"
       style="font-size:38.7915px;font-family:Dyuthi;-inkscape-font-specification:Dyuthi;fill:#00ff00;stroke-width:1.31378;stroke-linecap:round;stroke-linejoin:round;paint-order:stroke markers fill"
       aria-label="Aserfly" /><path
       d="m 28.12561,102.69943 h 9.992769 L 33.137367,88.894036 Z M 40.209174,85.91158 q 0,0 9.808287,27.18032 0.799422,2.21379 -0.584194,4.1201 -1.383613,1.93707 -3.689637,1.93707 h -0.676434 q -1.475854,0 -2.736481,-0.92241 -1.260626,-0.89167 -1.506602,-2.24454 l -1.598842,-7.62525 H 27.572164 l -1.475856,7.53301 q -0.276722,1.47585 -1.568097,2.36752 -1.32212,0.89167 -3.074698,0.89167 h -0.676432 q -2.306024,0 -3.658892,-1.93707 -1.352867,-1.90631 -0.614939,-4.1201 l 9.316336,-27.05734 q 0.79942,-2.336766 2.767227,-3.720384 1.967809,-1.383619 3.997109,-1.383619 h 0.860915 q 1.998554,0 3.966361,1.383619 1.998554,1.383618 2.797976,3.597404 z M 55.336688,114.66 q 0.276722,-1.16839 1.506601,-1.90632 1.106892,-0.67643 2.982458,-0.0615 1.875566,0.61494 3.812625,0.55344 3.689638,-0.0615 3.689638,-2.30603 0,-1.01464 -0.799421,-1.66033 -0.799422,-0.64568 -3.228433,-1.5066 -7.994216,-2.76722 -7.932722,-8.363177 0.0615,-4.027859 3.136193,-6.549103 3.043951,-2.521261 8.147951,-2.521261 2.398264,-0.03072 4.950264,0.676431 1.137637,0.307474 1.814071,1.352877 0.645687,1.045387 0.30747,2.244528 v 0.03072 q -0.215229,1.168383 -1.352868,1.875571 -1.137637,0.676431 -2.582746,0.276717 -1.475856,-0.399697 -2.859469,-0.461195 -3.289928,-0.06145 -3.289928,2.183029 0,0.922407 0.953156,1.660343 0.953158,0.70718 3.535904,1.59885 7.410023,2.61348 7.440769,8.48616 0.0615,4.02786 -2.982456,6.5491 -3.043952,2.49052 -8.947373,2.49052 -3.105445,0 -6.180144,-0.83017 -1.076144,-0.27673 -1.783323,-1.47586 -0.676434,-1.1069 -0.338217,-2.24452 z M 92.571283,96.396304 q -2.183036,0 -4.304578,1.875555 -1.352868,1.19914 -1.875566,3.904861 h 13.467173 q -1.014646,-3.566646 -3.013197,-4.673531 -1.998556,-1.106885 -4.273832,-1.106885 z m 13.620917,8.670636 v 0.0307 q 0,2.58275 -2.45977,2.58275 H 86.606367 q 0.891663,2.79797 1.814073,3.68964 3.412914,3.13619 9.101105,0.58419 l 3.166935,-1.41436 q 2.06005,-0.92242 3.16695,0.64568 1.10688,1.56809 0.73793,3.22843 l -0.0615,0.0307 q -0.30748,1.38362 -2.82872,2.76722 -3.658902,2.02931 -10.085016,1.96781 -4.612048,0 -8.916624,-4.1201 -4.27383,-4.12009 -4.27383,-9.99277 0,-5.90341 4.120094,-10.085007 4.150843,-4.150839 9.777541,-4.0586 5.626694,0.09217 9.746795,4.027859 4.12009,3.93562 4.12009,10.115748 z m 13.49792,-12.91373 q 1.78333,-1.260623 6.48762,-1.260623 0.86091,0 1.32212,0.614933 0.46119,0.614949 0.30747,1.352877 l -0.61495,2.85946 q -0.43045,2.73648 -2.12153,2.490504 -2.82873,-0.461196 -5.0425,1.106901 -2.21379,1.568098 -2.24455,3.597388 v 0.0615 h -0.0614 v 11.89908 q 0,1.72184 -1.26064,3.01322 -1.26063,1.29136 -3.0747,1.29136 h -0.0922 q -1.78333,0 -3.04396,-1.22988 -1.22988,-1.26062 -1.22988,-3.0747 V 95.350852 q 0,-1.783332 1.29138,-3.074695 1.29138,-1.260638 3.04396,-1.260638 h 0.15378 q 2.24453,0 4.33532,3.197691 0.95316,-1.4451 1.84481,-2.060049 z m 31.70014,-8.609153 q 0,0 0,0.09217 -0.58419,2.490503 -2.58274,2.582742 -5.25774,0.245977 -5.28848,5.042506 v 2.52126 h 2.42901 q 1.26062,0 2.18304,0.953148 0.92241,0.922423 0.95315,2.213786 v 0.06145 q 0,1.352861 -0.89167,2.244527 -0.89165,0.922414 -2.24452,0.891674 h -2.42901 v 15.18901 q 0,1.66033 -1.16838,2.85946 -1.19914,1.19914 -2.85948,1.16838 h -0.1229 q -1.69109,0 -2.85947,-1.13762 -1.16839,-1.13765 -1.16839,-2.89022 v -15.18901 h -0.86092 q -1.32212,0 -2.21377,-0.953172 -0.92243,-0.89165 -0.92243,-2.183029 v -0.06145 q 0,-1.229881 0.95317,-2.213786 0.95316,-0.922407 2.18303,-0.953148 h 0.86092 v -4.089357 q 0,-3.259173 2.79798,-6.487605 3.44365,-3.93562 9.7468,-4.0586 1.50659,-0.03073 2.70572,1.291363 1.19914,1.352877 0.79943,3.105452 z M 163.81204,114.66 q 0,1.93707 -1.32212,3.25919 -1.32212,1.32212 -3.28993,1.32212 h -0.0922 q -1.84482,0 -3.19768,-1.32212 -1.35288,-1.35287 -1.35288,-3.25919 V 85.265891 q 0,-1.906312 1.32212,-3.228433 1.29138,-1.32212 3.22844,-1.32212 h 0.0922 q 1.93707,0 3.28993,1.32212 1.35288,1.322121 1.32212,3.228433 z m 26.13495,-24.167126 q 0,0 0.0615,0 1.96781,0 3.25919,1.629595 1.26062,1.660335 0.55343,3.628145 -0.33821,0.922407 -8.76289,26.196426 -1.56809,4.70429 -5.38072,7.31778 -3.81262,2.64424 -8.85513,1.59884 -0.58419,-0.15379 -1.47585,-0.49194 -2.0293,-0.76869 -2.0293,-3.04395 v -0.0615 q 0,-0.61494 1.01465,-2.30603 0.67643,-1.01465 2.06005,-1.01465 1.41436,0 2.552,-0.55345 2.64424,-1.29138 2.64424,-6.05715 v -0.0922 q -1.78333,-8.73215 -7.31779,-21.184684 -0.89165,-1.967794 0.27673,-3.781866 1.16839,-1.783332 3.32068,-1.783332 h 0.73792 q 0.61494,0 2.30603,0.737928 1.07614,0.553451 1.4451,1.96781 l 5.01176,17.741004 q 2.64425,-5.47296 4.70429,-17.648764 0.18448,-1.045404 1.29137,-1.93707 1.1069,-0.860908 2.58276,-0.860908 z"
       id="text6"
       style="font-size:38.7353px;font-family:Dyuthi;-inkscape-font-specification:Dyuthi;fill:#0000ff;stroke-width:1.31187;stroke-linecap:round;stroke-linejoin:round;paint-order:stroke markers fill"
       aria-label="Aserfly" /></g></svg>
