<?xml version="1.0" encoding="UTF-8" standalone="no"?>
<!-- Created with Inkscape (http://www.inkscape.org/) -->

<svg
   width="210mm"
   height="210mm"
   viewBox="0 0 210 210"
   version="1.1"
   id="svg1"
   xml:space="preserve"
   xmlns:xlink="http://www.w3.org/1999/xlink"
   xmlns="http://www.w3.org/2000/svg"
   xmlns:svg="http://www.w3.org/2000/svg"><defs
     id="defs1"><linearGradient
       id="swatch82"><stop
         style="stop-color:#a7f3d0;stop-opacity:1;"
         offset="0"
         id="stop83" /></linearGradient><linearGradient
       id="swatch74"><stop
         style="stop-color:#000000;stop-opacity:0;"
         offset="0"
         id="stop74" /></linearGradient><linearGradient
       id="swatch25"><stop
         style="stop-color:#000000;stop-opacity:1;"
         offset="0"
         id="stop25" /></linearGradient><linearGradient
       id="swatch7"><stop
         style="stop-color:#00d37d;stop-opacity:0.99762249;"
         offset="0"
         id="stop7" /></linearGradient><linearGradient
       id="swatch6"><stop
         style="stop-color:#34d399;stop-opacity:1;"
         offset="0"
         id="stop6" /></linearGradient><linearGradient
       xlink:href="#swatch74"
       id="linearGradient3"
       gradientUnits="userSpaceOnUse"
       x1="109.3209"
       y1="95.206612"
       x2="172.99794"
       y2="95.206612"
       gradientTransform="translate(0.32047,-10.40968)" /><linearGradient
       xlink:href="#swatch74"
       id="linearGradient4"
       gradientUnits="userSpaceOnUse"
       x1="108.7559"
       y1="95.206619"
       x2="172.99794"
       y2="95.206619"
       gradientTransform="matrix(-1,0,0,1,209.67953,-10.643538)" /><linearGradient
       xlink:href="#swatch74"
       id="linearGradient6"
       gradientUnits="userSpaceOnUse"
       x1="109.3209"
       y1="95.206612"
       x2="172.99794"
       y2="95.206612"
       gradientTransform="translate(0.32047,-10.40968)" /><linearGradient
       xlink:href="#swatch74"
       id="linearGradient8"
       gradientUnits="userSpaceOnUse"
       x1="108.7559"
       y1="95.206619"
       x2="172.99794"
       y2="95.206619"
       gradientTransform="matrix(-1,0,0,1,209.67953,-10.643538)" /></defs><g
     id="layer1"><g
       id="g11"
       transform="translate(0,-3.4490721)"><path
         id="path6"
         style="fill:#52d799;fill-opacity:1;stroke:url(#linearGradient6);stroke-linecap:round;stroke-linejoin:round;paint-order:stroke markers fill"
         d="m 148.81528,23.11954 c -7.98616,0.457601 -16.02703,3.574121 -23.97683,10.787972 -14.50183,13.038937 -11.13216,24.034129 -14.68469,44.653344 9.31235,-22.958594 9.88774,-41.227893 30.0636,-47.133813 10.06353,-2.848007 18.54155,-1.831562 25.96172,1.488281 2.4129,45.056292 -28.33952,62.478236 -50.76641,75.735966 28.90826,-2.44599 49.61562,6.47704 31.33607,27.20193 -7.1823,5.66273 -18.80122,7.10059 -27.06295,-1.92184 -4.43703,-4.84557 -5.29256,-14.65172 -9.56485,-20.31915 3.28707,11.14288 5.45755,33.59246 25.30084,32.90701 2.64439,-0.35432 4.34225,-0.36813 6.65438,-1.18235 8.52122,-3.00076 16.09143,-9.11877 18.63555,-23.32002 0.0169,-0.39175 -0.12666,-0.20424 -0.0744,-0.0966 0.009,-0.0701 0.024,-0.21546 0.0424,-0.27078 -0.98427,-7.9506 -5.3993,-18.69393 -27.40763,-17.13229 12.02689,-4.2578 43.21503,-27.709715 39.19089,-76.232044 -7.72995,-3.421936 -15.6615,-5.623178 -23.64767,-5.165576 z" /><path
         id="path23"
         style="fill:#52d799;fill-opacity:1;stroke:url(#linearGradient8);stroke-linecap:round;stroke-linejoin:round;paint-order:stroke markers fill"
         d="m 61.18472,22.885682 c 7.98616,0.457601 16.02703,3.574121 23.97683,10.787972 14.50183,13.038937 11.71681,24.034129 15.26934,44.653344 C 91.11854,55.368404 89.9585,37.099105 69.78264,31.193185 59.71911,28.345178 51.24109,29.361623 43.82092,32.681466 c -2.4129,45.056292 29.00097,62.312876 51.42786,75.570604 -28.90826,-2.44599 -50.27707,6.6424 -31.99752,27.36729 7.1823,5.66273 18.80122,7.10059 27.06295,-1.92184 4.43703,-4.84557 5.62329,-14.65172 9.89558,-20.31915 -3.28707,11.14288 -5.78828,33.59246 -25.63157,32.90701 -2.64439,-0.35432 -4.34225,-0.36813 -6.65438,-1.18235 -8.52122,-3.00076 -16.09143,-9.11877 -18.63555,-23.32002 -0.0169,-0.39175 0.12666,-0.20424 0.0744,-0.0966 -0.009,-0.0701 -0.024,-0.21546 -0.0424,-0.27078 0.98427,-7.9506 5.3993,-18.69393 27.40763,-17.13229 C 64.70103,100.02554 33.51289,76.573627 37.53703,28.051298 45.26698,24.629362 53.19853,22.42812 61.1847,22.885722 Z" /><path
         id="path4"
         style="fill:#52d799;fill-opacity:1;stroke:url(#linearGradient3);stroke-linecap:round;stroke-linejoin:round;paint-order:stroke markers fill"
         d="m 148.81528,23.11954 c -7.98616,0.457601 -16.02703,3.574121 -23.97683,10.787972 -14.50183,13.038937 -11.13216,24.034129 -14.68469,44.653344 9.31235,-22.958594 9.88774,-41.227893 30.0636,-47.133813 10.06353,-2.848007 18.54155,-1.831562 25.96172,1.488281 2.4129,45.056292 -28.33952,62.478236 -50.76641,75.735966 28.90826,-2.44599 49.61562,6.47704 31.33607,27.20193 -7.1823,5.66273 -18.80122,7.10059 -27.06295,-1.92184 -4.43703,-4.84557 -5.29256,-14.65172 -9.56485,-20.31915 3.28707,11.14288 5.45755,33.59246 25.30084,32.90701 2.64439,-0.35432 4.34225,-0.36813 6.65438,-1.18235 8.52122,-3.00076 16.09143,-9.11877 18.63555,-23.32002 0.0169,-0.39175 -0.12666,-0.20424 -0.0744,-0.0966 0.009,-0.0701 0.024,-0.21546 0.0424,-0.27078 -0.98427,-7.9506 -5.3993,-18.69393 -27.40763,-17.13229 12.02689,-4.2578 43.21503,-27.709715 39.19089,-76.232044 -7.72995,-3.421936 -15.6615,-5.623178 -23.64767,-5.165576 z" /><path
         id="path5"
         style="fill:#52d799;fill-opacity:1;stroke:url(#linearGradient4);stroke-linecap:round;stroke-linejoin:round;paint-order:stroke markers fill"
         d="m 61.18472,22.885682 c 7.98616,0.457601 16.02703,3.574121 23.97683,10.787972 14.50183,13.038937 11.71681,24.034129 15.26934,44.653344 C 91.11854,55.368404 89.9585,37.099105 69.78264,31.193185 59.71911,28.345178 51.24109,29.361623 43.82092,32.681466 c -2.4129,45.056292 29.00097,62.312876 51.42786,75.570604 -28.90826,-2.44599 -50.27707,6.6424 -31.99752,27.36729 7.1823,5.66273 18.80122,7.10059 27.06295,-1.92184 4.43703,-4.84557 5.62329,-14.65172 9.89558,-20.31915 -3.28707,11.14288 -5.78828,33.59246 -25.63157,32.90701 -2.64439,-0.35432 -4.34225,-0.36813 -6.65438,-1.18235 -8.52122,-3.00076 -16.09143,-9.11877 -18.63555,-23.32002 -0.0169,-0.39175 0.12666,-0.20424 0.0744,-0.0966 -0.009,-0.0701 -0.024,-0.21546 -0.0424,-0.27078 0.98427,-7.9506 5.3993,-18.69393 27.40763,-17.13229 C 64.70103,100.02554 33.51289,76.573627 37.53703,28.051298 45.26698,24.629362 53.19853,22.42812 61.1847,22.885722 Z" /><g
         id="g10"
         transform="matrix(1.0882797,0,0,1.0882797,-9.3415243,-11.96022)"><text
           xml:space="preserve"
           style="font-style:normal;font-variant:normal;font-weight:normal;font-stretch:normal;font-size:38.7915px;font-family:Dyuthi;-inkscape-font-specification:Dyuthi;text-align:start;writing-mode:lr-tb;direction:ltr;text-anchor:start;fill:#00ff00;fill-opacity:1;stroke-width:0.808157;stroke-linecap:round;stroke-linejoin:round;paint-order:stroke markers fill"
           x="47.876331"
           y="132.76962"
           id="text2"><tspan
             id="tspan2"
             style="fill:#00ff00;fill-opacity:1;stroke-width:0.808157"
             x="47.876331"
             y="132.76962"></tspan><tspan
             style="fill:#00ff00;fill-opacity:1;stroke-width:0.808157"
             id="tspan3"
             x="47.876331"
             y="181.259">Aserfly</tspan></text><text
           xml:space="preserve"
           style="font-style:normal;font-variant:normal;font-weight:normal;font-stretch:normal;font-size:38.7353px;font-family:Dyuthi;-inkscape-font-specification:Dyuthi;text-align:start;writing-mode:lr-tb;direction:ltr;text-anchor:start;fill:#0000ff;fill-opacity:1;stroke-width:0.806982;stroke-linecap:round;stroke-linejoin:round;paint-order:stroke markers fill"
           x="48.060287"
           y="133.4351"
           id="text6"><tspan
             id="tspan5"
             style="fill:#0000ff;fill-opacity:1;stroke-width:0.806982"
             x="48.060287"
             y="133.4351"></tspan><tspan
             style="fill:#0000ff;fill-opacity:1;stroke-width:0.806982"
             id="tspan6"
             x="48.060287"
             y="181.85423">Aserfly</tspan></text></g></g></g></svg>
