<?xml version="1.0" ?><svg id="Layer_1" style="enable-background:new 0 0 60 60;" version="1.1" viewBox="0 0 60 60" xml:space="preserve" xmlns="http://www.w3.org/2000/svg" xmlns:xlink="http://www.w3.org/1999/xlink"><path d="M6,42.37c2.17,0,3.94,1.77,3.94,3.94c0,0.55,0.45,1,1,1h28.78c0.55,0,1-0.45,1-1c0-2.18,1.77-3.94,3.95-3.94  c0.55,0,1-0.45,1-1v-1.95l5.88-2.29c0.51-0.2,0.77-0.78,0.57-1.29c-0.79-2.03,0.22-4.32,2.24-5.11c0.25-0.1,0.45-0.29,0.55-0.53  c0.11-0.24,0.11-0.52,0.02-0.77l-5.18-13.3c-0.1-0.25-0.29-0.45-0.53-0.55c-0.24-0.11-0.52-0.11-0.77-0.02  c-2.02,0.79-4.32-0.22-5.11-2.24c-0.2-0.52-0.78-0.77-1.29-0.57l-21.57,8.4h-9.54c-0.55,0-1,0.45-1,1c0,2.18-1.77,3.94-3.94,3.94  c-0.55,0-1,0.45-1,1s0.45,1,1,1c2.94,0,5.38-2.14,5.86-4.94h26.95c0.42,2.48,2.38,4.44,4.86,4.86v12.45  c-2.48,0.42-4.44,2.38-4.86,4.86H11.86c-0.42-2.48-2.38-4.44-4.86-4.86V30.38c0-0.55-0.45-1-1-1s-1,0.45-1,1v10.99  C5,41.93,5.45,42.37,6,42.37z M40.72,22.15c0-0.55-0.45-1-1-1H25.99l15.93-6.21c1.29,2.16,3.83,3.27,6.29,2.76l4.52,11.6  c-1.05,0.63-1.88,1.56-2.38,2.71c-0.5,1.14-0.63,2.39-0.38,3.59l-4.3,1.68V27.1c0-0.55-0.45-1-1-1  C42.49,26.1,40.72,24.33,40.72,22.15z"
fill="#c0bebe"/><path d="M16.55,40.55c0.09,0.03,0.19,0.04,0.29,0.04s0.2-0.01,0.29-0.04c2.35-0.71,6.79-3.38,6.79-8.37c0-2.38-1.93-4.31-4.31-4.31  c-1.03,0-2,0.36-2.77,1.01c-0.77-0.65-1.74-1.01-2.77-1.01c-2.38,0-4.31,1.93-4.31,4.31C9.77,37.17,14.21,39.84,16.55,40.55z   M14.08,29.87c0.78,0,1.5,0.39,1.93,1.05c0.18,0.28,0.5,0.45,0.84,0.45s0.65-0.17,0.84-0.45c0.43-0.66,1.15-1.05,1.93-1.05  c1.27,0,2.31,1.04,2.31,2.31c0,4.15-3.94,5.93-5.07,6.36c-1.11-0.43-5.08-2.23-5.08-6.36C11.77,30.91,12.8,29.87,14.08,29.87z"
fill="#c0bebe"/><path d="M27.13,32.68H39.9c0.55,0,1-0.45,1-1s-0.45-1-1-1H27.13c-0.55,0-1,0.45-1,1S26.58,32.68,27.13,32.68z"
fill="#c0bebe"/><path d="M27.13,37.27H39.9c0.55,0,1-0.45,1-1s-0.45-1-1-1H27.13c-0.55,0-1,0.45-1,1S26.58,37.27,27.13,37.27z"
fill="#c0bebe"/></svg>