<?xml version="1.0" ?><svg fill="none" height="24" viewBox="0 0 24 24" width="24" xmlns="http://www.w3.org/2000/svg"><path clip-rule="evenodd" d="M14.5 13H2.5V11H14.5V13Z" fill="#00ffcc" fill-rule="evenodd"/><path clip-rule="evenodd" d="M11.7072 7.79291L15.2072 11.2929C15.5977 11.6834 15.5977 12.3166 15.2072 12.7071L11.7072 16.2071L10.293 14.7929L13.0859 12L10.293 9.20712L11.7072 7.79291Z" fill="#00ffcc" fill-rule="evenodd"/><path clip-rule="evenodd" d="M13.5004 5C10.7828 5 8.4252 6.54837 7.26472 8.81567L5.48438 7.90442C6.97351 4.995 10.0031 3 13.5004 3C18.471 3 22.5004 7.02944 22.5004 12C22.5004 16.9706 18.471 21 13.5004 21C10.0031 21 6.97351 19.005 5.48438 16.0956L7.26472 15.1843C8.4252 17.4516 10.7828 19 13.5004 19C17.3664 19 20.5004 15.866 20.5004 12C20.5004 8.13401 17.3664 5 13.5004 5Z" fill="#00ffcc" fill-rule="evenodd"/></svg>