<?xml version="1.0" ?>
<svg xmlns="http://www.w3.org/2000/svg" viewBox="0 0 64 64">
  <g id="Solid">
    <!-- Todos los paths ahora tienen fill="#c0bebe" -->
    <path d="M54.915,53.0107C50.56,39.3789,43.1465,27.4829,37.6943,19.9033l-.0063.0046c-.0074-.0081-.0073-.0212-.0151-.029-1.62-1.6226-9.7061,6.3589-10.6231,7.2749S18.1475,36.15,19.7744,37.7773c.0189.0189.0473.03.0678.0477l-.0043.0061c10.9062,7.78,22.3779,13.69,33.1728,17.0913a1.5026,1.5026,0,0,0,.4522.0693,1.5277,1.5277,0,0,0,1.4521-1.981Zm-27.1582-25.15c4.6407-4.6406,8.23-7.1259,9.1651-7.2309-.1045.9355-2.5908,4.5254-7.23,9.1655s-8.2305,7.1265-9.166,7.231C20.6309,36.0908,23.1162,32.5015,27.7568,27.8608Zm-.4455,13.7465c-.29-.1824-.5809-.361-.8707-.5461.9891-2.9806,1.9127-6.8835,2.3945-9.0394q.645-.61,1.2967-1.2567C29.9316,31.7194,28.6755,37.5768,27.3113,41.6073Zm5.4754,3.274c3.5744-7.3475,5.7164-19.94,5.9994-21.6737.2685.3923.5392.7909.8131,1.2-.6307,3.6375-2.671,14.2887-5.9409,20.968C33.3675,45.2148,33.0774,45.0452,32.7867,44.8813Zm7.6843,3.9828c-.2994-.1419-.5994-.2917-.8991-.4369,3.3256-6.804,4.4548-15.3843,4.611-16.6869q.408.7011.8148,1.4208A58.0534,58.0534,0,0,1,40.471,48.8641Zm6.6954,2.9c-.313-.1231-.6245-.2392-.9383-.3662a35.2839,35.2839,0,0,0,3.04-9.9677c.2493.533.4932,1.0737.7363,1.616A33.56,33.56,0,0,1,47.1664,51.7642ZM22.541,28.1768a.4994.4994,0,0,1-.4346.747l-.02,0-3.791-.1464a.4983.4983,0,0,1-.4189-.26l-1.7608-3.2285a.5.5,0,0,1,.4492-.7393l3.6758.0772a.5.5,0,0,1,.4238.2529ZM28.8193,22.19a.5.5,0,0,1-.747.4541L24.7754,20.77a.5.5,0,0,1-.2529-.4238l-.0782-3.6763a.5.5,0,0,1,.7393-.45l3.2285,1.7608a.5013.5013,0,0,1,.2608.4194ZM9.5107,39.9131a.5007.5007,0,0,1-.4775-.648c2.0332-6.5742,9.3887-7.2251,9.4629-7.2309a.5.5,0,0,1,.0791.997c-.0674.0054-6.7559.6119-8.5869,6.53A.5.5,0,0,1,9.5107,39.9131ZM9.5059,30.38a.5.5,0,0,1-.37-.8365,5.9868,5.9868,0,0,1,5.47-1.6508.5.5,0,0,1-.2217.9751A5.0633,5.0633,0,0,0,9.876,30.2168.5.5,0,0,1,9.5059,30.38ZM32.5332,19.0347c-.0137,0-.0273-.0005-.041-.0015a.499.499,0,0,1-.458-.5371c.0058-.0742.6572-7.43,7.2314-9.4629a.5.5,0,1,1,.2949.9551c-5.9179,1.83-6.5244,8.519-6.53,8.5864A.4991.4991,0,0,1,32.5332,19.0347Zm-4.1543-4.0406a.4994.4994,0,0,1-.4863-.3881,5.9855,5.9855,0,0,1,1.65-5.47.5.5,0,1,1,.6738.7393,5.0675,5.0675,0,0,0-1.35,4.51.5.5,0,0,1-.377.5971A.508.508,0,0,1,28.3789,14.9941Z" fill="#c0bebe"/>
  </g>
</svg>