<?xml version="1.0" ?><svg enable-background="new 0 0 32 32" version="1.1" viewBox="0 0 32 32" xml:space="preserve" xmlns="http://www.w3.org/2000/svg" xmlns:xlink="http://www.w3.org/1999/xlink"><g id="Glyph"><g><rect height="3.319" width="3.327" x="9.418" y="12.229"/><path d="M32,19.485h-0.5c-1.938,0-3.516-1.563-3.516-3.485s1.577-3.486,3.516-3.486H32V6.829H0v5.685h0.5    c1.938,0,3.516,1.564,3.516,3.486S2.439,19.485,0.5,19.485H0v5.686h32V19.485z M8.418,11.229h5.327v5.319H8.418V11.229z     M23.418,20.411H7.834v-1h15.584V20.411z M23.418,16.336h-6.422v-1h6.422V16.336z M23.418,12.26h-6.422v-1h6.422V12.26z"/></g></g></svg>