<?xml version="1.0" encoding="UTF-8" standalone="no"?>
<!-- Created with Inkscape (http://www.inkscape.org/) -->

<svg
   width="210mm"
   height="210mm"
   viewBox="0 0 210 210"
   version="1.1"
   id="svg1"
   xml:space="preserve"
   xmlns="http://www.w3.org/2000/svg"
   xmlns:svg="http://www.w3.org/2000/svg"><defs
     id="defs1" /><g
     id="layer1"
     transform="rotate(-1.2612777,176.99563,105.36755)"><g
       id="g10"
       transform="matrix(1.6256444,0,0,1.6256444,-66.114747,-176.60424)"><path
         d="m 57.8015,171.20125 h 6.155878 l -3.068468,-8.50459 z m 7.443877,-10.34188 q 0,0 6.042231,16.74399 0.49247,1.36376 -0.359882,2.53811 -0.852353,1.1933 -2.27294,1.1933 h -0.416705 q -0.909176,0 -1.685764,-0.56824 -0.776587,-0.54929 -0.928117,-1.3827 l -0.98494,-4.69741 h -7.178701 l -0.909175,4.64058 q -0.170471,0.90918 -0.966,1.45847 -0.81447,0.5493 -1.894116,0.5493 h -0.416705 q -1.420588,0 -2.253999,-1.1933 -0.833411,-1.17435 -0.378823,-2.53811 l 5.739172,-16.66822 q 0.49247,-1.43953 1.704705,-2.29188 1.212234,-0.85236 2.462351,-0.85236 h 0.530352 q 1.231176,0 2.44341,0.85236 1.231176,0.85235 1.723646,2.21611 z m 9.319052,17.70999 q 0.170471,-0.71977 0.928117,-1.17435 0.681882,-0.41671 1.837293,-0.0379 1.155411,0.37883 2.348704,0.34094 2.27294,-0.0379 2.27294,-1.42058 0,-0.62506 -0.492471,-1.02283 -0.49247,-0.39776 -1.988822,-0.92811 -4.924702,-1.70471 -4.88682,-5.152 0.03788,-2.48129 1.931999,-4.03447 1.875175,-1.55317 5.019408,-1.55317 1.477411,-0.0189 3.049527,0.4167 0.700823,0.18942 1.117529,0.83342 0.397764,0.64399 0.189411,1.3827 v 0.0189 q -0.132588,0.71977 -0.833411,1.15541 -0.700823,0.41671 -1.591058,0.17047 -0.909175,-0.24623 -1.761528,-0.28411 -2.026704,-0.0379 -2.026704,1.34482 0,0.56823 0.587176,1.02282 0.587176,0.43565 2.178234,0.98494 4.56482,1.61 4.583761,5.22776 0.03788,2.48129 -1.837293,4.03447 -1.875175,1.53423 -5.511878,1.53423 -1.913057,0 -3.807174,-0.51141 -0.66294,-0.17047 -1.098587,-0.90917 -0.416706,-0.68189 -0.208353,-1.38271 z m 22.937748,-11.25105 q -1.344822,0 -2.651763,1.15541 -0.833411,0.7387 -1.15541,2.40553 h 8.296226 q -0.62506,-2.19718 -1.85623,-2.87906 -1.231177,-0.68188 -2.632823,-0.68188 z m 8.390933,5.34141 v 0.0189 q 0,1.59105 -1.51529,1.59105 H 93.827592 q 0.549293,1.72365 1.117528,2.27294 2.102469,1.932 5.60658,0.35989 l 1.95094,-0.8713 q 1.26906,-0.56823 1.95094,0.39777 0.68189,0.966 0.45459,1.98882 l -0.0379,0.0189 q -0.18941,0.85235 -1.74259,1.7047 -2.254,1.25012 -6.212699,1.21224 -2.841174,0 -5.492937,-2.53812 -2.632821,-2.53811 -2.632821,-6.15587 0,-3.63671 2.538115,-6.21271 2.557057,-2.55705 6.02329,-2.50023 3.466232,0.0568 6.004352,2.48129 2.53811,2.42447 2.53811,6.23165 z m 8.31517,-7.95529 q 1.09859,-0.77659 3.99658,-0.77659 0.53036,0 0.81447,0.37882 0.28412,0.37883 0.18942,0.83341 l -0.37883,1.76153 q -0.26517,1.68577 -1.30694,1.53424 -1.74258,-0.28412 -3.10635,0.68188 -1.36376,0.966 -1.3827,2.21611 v 0.0379 h -0.0379 v 7.33023 q 0,1.0607 -0.77659,1.85623 -0.77659,0.79553 -1.89412,0.79553 h -0.0568 q -1.09859,0 -1.87518,-0.75765 -0.75764,-0.77659 -0.75764,-1.89411 v -12.02764 q 0,-1.09859 0.79553,-1.89412 0.79552,-0.77659 1.87517,-0.77659 h 0.0947 q 1.3827,0 2.6707,1.96988 0.58718,-0.89023 1.13647,-1.26905 z m 19.52834,-5.30353 q 0,0 0,0.0568 -0.35988,1.53423 -1.59106,1.59105 -3.23894,0.15153 -3.25788,3.10635 v 1.55318 h 1.49635 q 0.77659,0 1.34483,0.58717 0.56823,0.56824 0.58717,1.36377 v 0.0379 q 0,0.83341 -0.54929,1.38271 -0.54929,0.56823 -1.38271,0.54929 h -1.49635 v 9.35693 q 0,1.02283 -0.71976,1.76153 -0.73871,0.73871 -1.76153,0.71977 h -0.0758 q -1.04177,0 -1.76153,-0.70083 -0.71977,-0.70082 -0.71977,-1.78047 v -9.35693 h -0.53035 q -0.81447,0 -1.36376,-0.58718 -0.56824,-0.54929 -0.56824,-1.34482 v -0.0379 q 0,-0.75765 0.58718,-1.36377 0.58717,-0.56823 1.34482,-0.58717 h 0.53035 v -2.51918 q 0,-2.00776 1.72365,-3.99658 2.12141,-2.42447 6.00435,-2.50023 0.92811,-0.0189 1.66682,0.79552 0.7387,0.83342 0.49247,1.91306 z m 7.65223,19.16846 q 0,1.19329 -0.81447,2.00776 -0.81447,0.81447 -2.0267,0.81447 h -0.0568 q -1.13647,0 -1.96988,-0.81447 -0.83341,-0.83341 -0.83341,-2.00776 v -18.10775 q 0,-1.17436 0.81447,-1.98883 0.79553,-0.81447 1.98882,-0.81447 h 0.0568 q 1.19329,0 2.0267,0.81447 0.83341,0.81447 0.81447,1.98883 z m 16.09999,-14.88776 q 0,0 0.0379,0 1.21223,0 2.00776,1.00389 0.77659,1.02282 0.34094,2.23505 -0.20835,0.56824 -5.39823,16.13787 -0.966,2.898 -3.3147,4.508 -2.34871,1.62894 -5.45506,0.98494 -0.35988,-0.0947 -0.90917,-0.30306 -1.25012,-0.47353 -1.25012,-1.87517 v -0.0379 q 0,-0.37882 0.62506,-1.42058 0.41671,-0.62506 1.26906,-0.62506 0.87129,0 1.57211,-0.34094 1.62894,-0.79553 1.62894,-3.73141 v -0.0568 q -1.09858,-5.37929 -4.50799,-13.05047 -0.5493,-1.21223 0.17047,-2.32976 0.71976,-1.09859 2.04564,-1.09859 h 0.45459 q 0.37882,0 1.42059,0.45459 0.66294,0.34094 0.89023,1.21224 l 3.08741,10.92905 q 1.62894,-3.37153 2.898,-10.87223 0.11365,-0.644 0.79553,-1.19329 0.68188,-0.53036 1.59106,-0.53036 z"
         id="text2"
         style="font-size:38.7915px;font-family:Dyuthi;-inkscape-font-specification:Dyuthi;fill:#00ff00;stroke-width:0.808157;stroke-linecap:round;stroke-linejoin:round;paint-order:stroke markers fill"
         aria-label="Aserfly" /><path
         d="m 57.971077,171.81105 h 6.146959 l -3.064023,-8.49226 z m 7.433092,-10.32689 q 0,0 6.033476,16.71972 0.491757,1.36179 -0.359361,2.53444 -0.851117,1.19157 -2.269646,1.19157 h -0.416102 q -0.907858,0 -1.683321,-0.56741 -0.775462,-0.5485 -0.926772,-1.38071 l -0.983513,-4.6906 h -7.1683 l -0.907859,4.63386 q -0.170223,0.90786 -0.9646,1.45636 -0.81329,0.5485 -1.891372,0.5485 h -0.416101 q -1.418529,0 -2.250733,-1.19157 -0.832204,-1.17265 -0.378274,-2.53444 l 5.730857,-16.64407 q 0.491756,-1.43744 1.702234,-2.28856 1.210479,-0.85112 2.458784,-0.85112 h 0.529584 q 1.229392,0 2.43987,0.85112 1.229392,0.85112 1.721149,2.21291 z m 9.305549,17.68432 q 0.170223,-0.71872 0.926772,-1.17265 0.680894,-0.4161 1.834631,-0.0378 1.153737,0.37827 2.345301,0.34044 2.269646,-0.0378 2.269646,-1.41853 0,-0.62415 -0.491756,-1.02134 -0.491757,-0.39718 -1.985941,-0.92677 -4.917567,-1.70223 -4.87974,-5.14453 0.03783,-2.4777 1.9292,-4.02862 1.872458,-1.55093 5.012136,-1.55093 1.47527,-0.0189 3.045109,0.4161 0.699807,0.18914 1.115909,0.83221 0.397188,0.64306 0.189137,1.3807 v 0.0189 q -0.132396,0.71872 -0.832204,1.15374 -0.699807,0.4161 -1.588752,0.17022 -0.907859,-0.24587 -1.758976,-0.2837 -2.023768,-0.0378 -2.023768,1.34287 0,0.56741 0.586325,1.02134 0.586326,0.43502 2.175078,0.98352 4.558207,1.60766 4.57712,5.22018 0.03783,2.4777 -1.83463,4.02862 -1.872459,1.53202 -5.503893,1.53202 -1.910286,0 -3.801658,-0.51067 -0.66198,-0.17023 -1.096995,-0.90786 -0.416102,-0.6809 -0.208051,-1.3807 z m 22.904514,-11.23474 q -1.342874,0 -2.647921,1.15373 -0.832204,0.73764 -1.153737,2.40204 h 8.284206 q -0.62415,-2.19399 -1.85354,-2.87488 -1.229393,-0.68089 -2.629008,-0.68089 z m 8.378778,5.33366 v 0.0189 q 0,1.58875 -1.5131,1.58875 H 93.94497 q 0.548498,1.72115 1.11591,2.26965 2.099422,1.9292 5.59846,0.35936 l 1.94811,-0.87003 q 1.26722,-0.56742 1.94812,0.39718 0.68089,0.9646 0.45393,1.98594 l -0.0378,0.0189 q -0.18914,0.85112 -1.74006,1.70223 -2.25074,1.24831 -6.203704,1.21048 -2.837058,0 -5.484978,-2.53444 -2.629007,-2.53444 -2.629007,-6.14696 0,-3.63143 2.534438,-6.2037 2.553352,-2.55335 6.014563,-2.49661 3.461208,0.0567 5.995648,2.4777 2.53444,2.42096 2.53444,6.22261 z m 8.30312,-7.94376 q 1.097,-0.77546 3.9908,-0.77546 0.52958,0 0.81329,0.37827 0.2837,0.37828 0.18914,0.83221 l -0.37828,1.75897 q -0.26479,1.68332 -1.30504,1.53201 -1.74007,-0.2837 -3.10185,0.6809 -1.36179,0.9646 -1.38071,2.2129 v 0.0378 h -0.0378 v 7.31961 q 0,1.05917 -0.77547,1.85355 -0.77546,0.79437 -1.89137,0.79437 h -0.0567 q -1.097,0 -1.87246,-0.75655 -0.75655,-0.77546 -0.75655,-1.89137 v -12.01021 q 0,-1.097 0.79438,-1.89137 0.79438,-0.77547 1.87246,-0.77547 h 0.0946 q 1.3807,0 2.66683,1.96703 0.58633,-0.88894 1.13482,-1.26722 z m 19.50005,-5.29584 q 0,0 0,0.0567 -0.35936,1.53201 -1.58875,1.58875 -3.23425,0.15131 -3.25316,3.10185 v 1.55093 h 1.49418 q 0.77546,0 1.34288,0.58632 0.56741,0.56742 0.58632,1.36179 v 0.0378 q 0,0.8322 -0.5485,1.3807 -0.54849,0.56741 -1.3807,0.5485 h -1.49418 v 9.34338 q 0,1.02134 -0.71872,1.75897 -0.73764,0.73764 -1.75898,0.71872 h -0.0756 q -1.04026,0 -1.75898,-0.6998 -0.71872,-0.69981 -0.71872,-1.77789 v -9.34338 h -0.52959 q -0.81329,0 -1.36178,-0.58633 -0.56742,-0.54849 -0.56742,-1.34287 v -0.0378 q 0,-0.75655 0.58633,-1.36179 0.58633,-0.56741 1.34287,-0.58632 h 0.52959 v -2.51553 q 0,-2.00485 1.72115,-3.99079 2.11833,-2.42096 5.99565,-2.49661 0.92677,-0.0189 1.6644,0.79437 0.73764,0.83221 0.49176,1.91029 z m 7.64114,19.14068 q 0,1.19157 -0.81329,2.00486 -0.81329,0.81329 -2.02377,0.81329 h -0.0567 q -1.13482,0 -1.96702,-0.81329 -0.83221,-0.8322 -0.83221,-2.00486 v -18.08151 q 0,-1.17265 0.81329,-1.98594 0.79438,-0.81329 1.98594,-0.81329 h 0.0567 q 1.19157,0 2.02377,0.81329 0.83221,0.81329 0.81329,1.98594 z m 16.07667,-14.86618 q 0,0 0.0378,0 1.21048,0 2.00486,1.00243 0.77546,1.02134 0.34044,2.23182 -0.20805,0.56741 -5.39041,16.11449 -0.9646,2.8938 -3.3099,4.50146 -2.3453,1.62658 -5.44715,0.98351 -0.35936,-0.0946 -0.90786,-0.30261 -1.2483,-0.47285 -1.2483,-1.87246 v -0.0378 q 0,-0.37827 0.62415,-1.41853 0.4161,-0.62415 1.26722,-0.62415 0.87003,0 1.56984,-0.34045 1.62658,-0.79438 1.62658,-3.726 v -0.0567 q -1.097,-5.3715 -4.50147,-13.03156 -0.54849,-1.21047 0.17023,-2.32638 0.71872,-1.097 2.04268,-1.097 h 0.45393 q 0.37827,0 1.41853,0.45393 0.66198,0.34045 0.88894,1.21048 l 3.08294,10.91321 q 1.62658,-3.36664 2.8938,-10.85647 0.11348,-0.64307 0.79437,-1.19157 0.6809,-0.52958 1.58876,-0.52958 z"
         id="text6"
         style="font-size:38.7353px;font-family:Dyuthi;-inkscape-font-specification:Dyuthi;fill:#0000ff;stroke-width:0.806982;stroke-linecap:round;stroke-linejoin:round;paint-order:stroke markers fill"
         aria-label="Aserfly" /></g></g></svg>
